<svg height="225" viewBox="0 0 300 225" width="300" xmlns="http://www.w3.org/2000/svg"><linearGradient id="a" x1=".042%" y1="50.012%" y2="50.012%"><stop offset="0" stop-color="gray" stop-opacity=".25"/><stop offset=".54" stop-color="gray" stop-opacity=".12"/><stop offset="1" stop-color="gray" stop-opacity=".1"/></linearGradient><g fill="none"><ellipse cx="139.792" cy="215.234" fill="#727272" opacity=".1" rx="52.255" ry="9.685"/><path d="M174.347 32.342c-19.205-.65-37.495-6.718-54.961-13.355S84.62 5 65.876 1.484C53.818-.778 40.03-1.1 30.317 5.217c-9.35 6.097-12.371 16.592-13.995 26.338-1.222 7.334-1.94 15.053 1.407 21.92 2.326 4.767 6.451 8.773 9.306 13.34 9.931 15.886 2.91 35.477-7.85 50.99-5.044 7.275-10.904 14.225-14.8 21.962-3.896 7.737-5.698 16.633-2.288 24.547 3.377 7.839 11.427 13.715 20.148 17.852 17.712 8.405 38.576 10.809 58.935 12.173 45.053 3.014 90.344 1.71 135.516.4 16.718-.481 33.508-.972 49.953-3.5 9.133-1.406 18.56-3.635 25.193-9.018 8.415-6.831 10.501-18.398 4.86-26.962-9.46-14.371-35.608-17.94-42.228-33.358-3.638-8.49.098-17.942 5.389-25.813 11.347-16.888 30.364-31.703 31.364-51.004.689-13.256-8.454-26.532-22.59-32.806-14.816-6.576-35.365-5.749-46.29 5.136-11.262 11.194-31.042 15.506-48 14.928z" fill="#727272" opacity=".1"/><path d="M196.516 104.988l-9.089-5.995 4.585-6.678-24.006-1.872-8.626 6.526-10.798-5.922-9.006 1.06-.107-2.323a64.178 64.178 0 0 0-.745-7.23 43.39 43.39 0 0 0 .062-2.464c0-3.818-.528-8.878-2.848-12.252l.534-4.697-4.333-5.008a31.901 31.901 0 0 1 2.374-3.908c.149-.209.297-.412.457-.61 5.623-.397 10.06-4.92 10.06-10.451 0-.256 0-.511-.03-.764 0-.101-.02-.206-.033-.308.55.29 1.104.581 1.66.871.103.146.222.29.352.462l.027.032.166.2.054.061c.059.07.121.137.183.206l.042.047a11.596 11.596 0 0 0 .56.572l.223.203.063.055c.19.166.391.325.593.476l.065.047.256.171.083.052c.098.058.199.12.297.174l.035.02c.116.062.235.12.353.175l.06.023c.1.043.2.084.296.122l.092.032c.104.035.205.067.312.096l.065.017c.13.032.261.058.395.079h.015c.125.02.252.032.38.037h.086c.113.006.227.006.34 0h.075c.142-.007.284-.024.424-.049a4.75 4.75 0 0 0 1.87-.656c.144-.095.273-.211.38-.346.593-.76-.06-1.593-.06-1.593-.231-.54-1.733-.92-1.733-.92s-4.748-1.94-4.748-3.485c0-1.544-1.186-9.557-13.439-11.389 0 0-7.97-.438-10.21 3.736l-.048.488c-.659.404-1.205 1.214-1.854 1.452a3.1 3.1 0 0 0-.805.29v-.055a.751.751 0 0 0-.18.23 2.27 2.27 0 0 0-.247.87c-.067.37-.198.727-.389 1.054a2.338 2.338 0 0 1-.178.267l-.05.079a2.21 2.21 0 0 0 1.009-.16c-.05.397-.15.787-.297 1.161a.988.988 0 0 0 .914-.534v-.023l.039-.052c.074-.135.136-.276.184-.421l-.033.034c.06-.188.113-.38.178-.566a.885.885 0 0 1 .145-.29.728.728 0 0 1 .615-.2l-.122 2.517h.053c-.07.183-.158.36-.26.528-.422.668-1.188 1.124-1.47 1.855a2.674 2.674 0 0 0-.136 1.098c0 .218.027.438.044.656v-.018c.042.581.054 1.133-.267 1.6-.22.32-.572.56-.694.923a.882.882 0 0 0-.045.314c.024.318.092.632.202.932a.04.04 0 0 0 0-.018c.074.221.092.457.05.686-.133.58-.854 1.065-.818 1.62a.62.62 0 0 0 .032.214c.14.271.38.48.671.581.457.255.983.368 1.507.325.197-.034.387-.098.564-.188a37.308 37.308 0 0 1-.742 1.576s-1.833-1.199-2.875 1.245a5.353 5.353 0 0 0-.644 1.638 3.81 3.81 0 0 1-.22.673 4.399 4.399 0 0 1-1.982 1.742c-2.124.953-10.706 11.425-10.857 14.136a15.509 15.509 0 0 1-.546 3.13 18.235 18.235 0 0 0-.51 7.4c.105.8.281 1.59.525 2.36.91 2.71 1.519 7.764 1.519 7.764l.985 8.773a24.405 24.405 0 0 0 .16 3.626c-1.006 1.124-5.044 5.807-3.501 7.081 1.187 1.005 3.264.84 4.43.633-.982 2.378-2.528 6.512-2.733 9.352-.297 4.2.507 9.766 1.78 11.903s5.517 7.618 5.517 7.618-.199 7.52 1.317 10.251c1.517 2.732 2.128 8.4 2.128 8.4s1.415 4.784.706 6.543c-.709 1.76 1.315 3.223-.81 4.393s-4.843 27.54-4.843 27.54-1.095 17.283 0 18.162c.06.042.122.078.187.108v5.806s-.76 1.22 2.33 1.466c2.115.166 8.112.54 11.67.758l2.757.168s6.528 1.272 9.412 0c2.885-1.271 7.997-1.242 7.238-4.601a9.401 9.401 0 0 0-.404-1.344c-.834-2.085-2.249-2.323-4.857-2.904a12.48 12.48 0 0 0-.43-.084c-2.748-.467-3.65.784-5.19-.845-1.339-1.408-5.6-2.984-7.051-3.484.036-.104.08-.206.116-.313a2.192 2.192 0 0 1-1.101-.526l3.932.244 2.34.143s5.55 1.082 8.013 0c2.463-1.083 6.795-1.054 6.148-3.908a8.056 8.056 0 0 0-.341-1.144c-.71-1.771-1.914-1.966-4.13-2.456-.128-.026-.247-.052-.366-.073-2.335-.398-3.1.665-4.41-.717-1.12-1.179-4.66-2.5-5.934-2.95 0-.644-.89-1.562-1.45-2.482-.66-1.074.557-4.834.557-4.834l.694-15.599c.265-.115.544-.193.831-.232 0 0 3.14-2.932 2.43-6.056a19.645 19.645 0 0 1-.225-2.854c1.033-.938 2.454-2.323 2.857-3.176.66-1.39 0-8.13 0-8.13v-25.765l5.253.52 4.765.478 1.451.146 4.766.47 10.952 1.083 9.87-1.83 4.27-.789 8.78-1.626v-21.02l9.09-1.468zm-72.288-69.651l-.61-.064c.201.008.415.046.61.064z" fill="url(#a)"/><path d="M175.24 118.809c-2.967 4.154-13.635 1.954-13.635 1.954l-8.267-7.57-1.112-1.024 1.866-3.879s.593.16 1.611.445c5.344 1.518 22.042 6.581 19.537 10.074z" fill="#efb7b9"/><path d="M155.697 108.735c-.365 1.242-1.365 3.103-2.359 4.459l-1.112-1.025 1.866-3.879s.6.16 1.605.445z" fill="#000" opacity=".1"/><path d="M127.438 64.864s-7.62 3.307-7.247 11.427c.27 5.231.852 10.443 1.745 15.608 0 0-1.558 12.22 4.929 15.37a346.65 346.65 0 0 0 12.49 5.74s10.148 1.067 11.41 1.509c1.26.441 5.2-6.306 4.474-7.357-.727-1.051-10.042-3.255-11.229-5.008-1.187-1.754-3.931-2.837-3.931-2.837s-2.834-1.678-3.027-3.193c-.193-1.516.555-2.645.745-3.31s.67-7.084.67-7.084 3.2-22.848-11.03-20.865z" fill="#dce6f2"/><path d="M132.36 91.452s-10.454 1.713-9.442 5.292c0 0 3.795-3.864 9.442-5.292zm.08 1.448s-5.748 4.59-4.623 4.825c1.124.236 4.623-4.825 4.623-4.825zm2.762 1.6s-1.54 3.086-.593 2.877c.946-.209.593-2.877.593-2.877z" fill="#000" opacity=".1"/><path d="M156.09 108.897l-.635-.177c.181-.58.232-1.051.083-1.269-.727-1.05-10.035-3.251-11.22-5.008-1.183-1.756-3.931-2.836-3.931-2.836s-2.834-1.678-3.027-3.194c-.193-1.515.555-2.645.745-3.31.19-.664.67-7.086.67-7.086s3.19-22.846-11.038-20.863c0 0-7.62 3.31-7.25 11.43.27 5.232.854 10.443 1.749 15.608 0 0-1.558 12.22 4.928 15.37 6.487 3.15 12.49 5.74 12.49 5.74s10.145 1.065 11.41 1.509c.477.168 1.34-.7 2.186-1.893l.481.438 8.267 7.566s10.668 2.204 13.635-1.95c2.508-3.496-14.187-8.56-19.543-10.075z" fill="#000" opacity=".1"/><path d="M122.855 34.476c-.29.056-.57.16-.822.31-.297.242-.297.654-.371 1.014-.087.5-.29.975-.594 1.388.338.024.677-.03.988-.16-.05.397-.15.787-.296 1.161a.964.964 0 0 0 .89-.531c.157-.327.281-.668.37-1.019a.837.837 0 0 1 .143-.29c.273-.317.78-.175 1.202-.134a1.989 1.989 0 0 0 1.804-.848c.448-.664.475-2.366-.593-2.546-1.116-.18-1.81 1.324-2.721 1.655z" fill="#965d7b"/><path d="M122.255 34.981c.027-.142.045-.29.077-.433-.282.241-.296.65-.37 1.014a3.14 3.14 0 0 1-.176.612 3.3 3.3 0 0 0 .47-1.193zm.095 2.398a4.73 4.73 0 0 0 .297-1.161 2.166 2.166 0 0 1-.94.16 3.341 3.341 0 0 1-.342.58c.336.026.674-.028.985-.157-.05.398-.149.788-.297 1.162a.967.967 0 0 0 .89-.532c.075-.132.134-.27.179-.415a.897.897 0 0 1-.772.363zm2.605-1.974c-.42-.04-.931-.183-1.204.133a.889.889 0 0 0-.143.29c-.026.076-.05.155-.07.233.281-.218.738-.102 1.12-.064a1.998 1.998 0 0 0 1.805-.848 1.59 1.59 0 0 0 .199-.455c-.413.5-1.052.766-1.707.71z" fill="#000" opacity=".1"/><path d="M131.801 58.355l4.525 5.324-.59 5.374-5.469-8.376z" fill="#dce6f2"/><path d="M136.323 63.68l-.554 5.054-.036.32-4.935-7.56-.53-.817.153-.235 1.377-2.087.306.36z" fill="#000" opacity=".1"/><path d="M138.923 51.082c-1.531.43-2.994 1.905-4.267 3.696a31.387 31.387 0 0 0-2.303 3.873 48.322 48.322 0 0 0-1.092 2.29l-.214.488c-.516 1.194-.804 1.992-.804 1.992s-11.72-8.623-9.866-9.203c.623-.195 1.442-1.501 2.252-3.147l.101-.21a55.046 55.046 0 0 0 1.466-3.344c.917-2.279 1.596-4.259 1.596-4.259s17.804 6.518 13.13 7.824z" fill="#efb7b9"/><path d="M145.697 42.968s2.707 4.79 6.342 4.137 2.139-2.572 2.139-2.572l-8.48-1.565z" fill="#444053"/><path d="M140.493 208.725c-2.398 1.07-7.82 0-7.82 0l-2.284-.14c-2.968-.186-7.935-.5-9.692-.639-2.563-.206-1.934-1.233-1.934-1.233v-6.21l12.439-3.084s4.917 1.646 6.264 3.084c1.279 1.37 2.027.316 4.308.71.113.021.232.044.357.073 2.166.485 3.34.677 4.035 2.433.14.37.252.748.335 1.133.641 2.827-3.614 2.807-6.008 3.873z" fill="#a36468"/><path d="M146.166 203.699a9.378 9.378 0 0 1-1.4.703c-1.632.728-3.184 1.617-4.834 2.305s-3.428 1.178-5.214 1.048c-.935-.067-1.89-.29-2.783-.03a6.47 6.47 0 0 0-1.546.84c-2.968-.186-7.935-.5-9.692-.639-2.563-.206-1.934-1.234-1.934-1.234v-.726c.092 0 .195-.026.314-.034.614-.01 1.226.08 1.81.264 1.288.342 2.57.68 3.858 1.016.214-.79.75-1.46 1.483-1.852a4.816 4.816 0 0 1 2.392-.537c1.997.026 3.887.952 5.881 1.045a3.304 3.304 0 0 0 1.63-.267c.273-.134.513-.328.78-.476a5.784 5.784 0 0 1 1.344-.445 30.072 30.072 0 0 0 3.843-1.213c.356-.137.771-.383.724-.755-.062-.494-.855-.552-1.062-1.005a.57.57 0 0 1 .023-.513c.113.02.232.043.356.072 2.158.485 3.333.677 4.027 2.433z" fill="#000" opacity=".1"/><path d="M138.107 222.338c-2.819 1.26-9.198 0-9.198 0l-2.686-.154c-3.478-.218-9.335-.58-11.403-.752-3.018-.244-2.276-1.452-2.276-1.452v-7.319l14.638-3.629s5.786 1.937 7.37 3.63c1.505 1.61 2.374.37 5.072.835.133.024.273.053.418.085 2.55.58 3.932.798 4.748 2.865.165.434.297.88.395 1.333.735 3.327-4.259 3.3-7.078 4.558z" fill="#a36468"/><path d="M144.784 216.322a11.14 11.14 0 0 1-1.647.828c-1.92.856-3.748 1.901-5.688 2.711-1.941.81-4.033 1.385-6.137 1.234-1.098-.078-2.222-.348-3.264-.035a7.615 7.615 0 0 0-1.825.999c-3.478-.218-9.335-.58-11.403-.752-3.018-.244-2.276-1.452-2.276-1.452v-.853c.122-.02.246-.033.37-.04a6.643 6.643 0 0 1 2.131.31l4.537 1.196a3.527 3.527 0 0 1 1.76-2.18 5.637 5.637 0 0 1 2.816-.633c2.35.032 4.573 1.12 6.92 1.23a3.912 3.912 0 0 0 1.91-.31c.324-.16.594-.389.92-.56a6.552 6.552 0 0 1 1.582-.523 36.078 36.078 0 0 0 4.499-1.428c.418-.163.908-.453.851-.889-.074-.58-1.006-.65-1.252-1.184a.686.686 0 0 1 .03-.604c.133.023.273.052.418.084 2.55.558 3.932.784 4.748 2.851z" fill="#000" opacity=".1"/><path d="M131.682 172.028l-.792 18.24s-1.187 3.726-.543 4.791c.644 1.066 1.73 2.128 1.335 2.758-.394.63-5.142 7.441-6.676 4.828s-3.048-13.935-3.048-13.935l1.416-13.985zm3.437-45.447l2.201 2.88v25.049s.644 6.677 0 8.056c-.643 1.38-3.908 4.137-3.908 4.137l-2.744-13.79.593-14.589z" fill="#444053"/><path d="M131.682 172.028l-.792 18.24s-1.187 3.726-.543 4.791c.644 1.066 1.73 2.128 1.335 2.758-.394.63-5.142 7.441-6.676 4.828s-3.048-13.935-3.048-13.935l1.416-13.985zm3.437-45.447l2.201 2.88v25.049s.644 6.677 0 8.056c-.643 1.38-3.908 4.137-3.908 4.137l-2.744-13.79.593-14.589z" fill="#000" opacity=".1"/><path d="M137.255 115.839v13.55l-2.472 10.546s-.792 25.453-.1 28.548c.69 3.095-2.374 6-2.374 6s-1.78.195-1.78 1.548-2.968 5.226-2.968 5.226l.098 7.548s1.288 14.13-.692 16.84c-1.979 2.708.692 3.097.692 3.097-2.472 7.934-14.341 6.097-15.413 5.226-1.07-.871 0-18 0-18s2.653-26.13 4.73-27.29c2.077-1.162.101-2.613.793-4.355.69-1.742-.692-6.483-.692-6.483s-.593-5.615-2.077-8.324-1.288-10.161-1.288-10.161-4.154-5.42-5.389-7.549c-1.234-2.128-2.03-7.644-1.732-11.807.201-2.813 1.712-6.91 2.67-9.267.46-1.13.792-1.861.792-1.861l.282.073 16.208 4.151z" fill="#444053"/><path d="M138.766 51.103c-1.532.43-2.994 1.904-4.267 3.695h-.333c-3.798.003-7.307-1.983-9.199-5.205-.388-.656-.7-1.352-.931-2.076.917-2.279 1.596-4.259 1.596-4.259s17.807 6.538 13.134 7.845z" fill="#000" opacity=".1"/><path d="M144.659 43.774c.007 4.353-2.763 8.248-6.938 9.755-4.174 1.506-8.866.303-11.75-3.012-2.883-3.315-3.346-8.039-1.158-11.83.322-.562.697-1.092 1.122-1.585.7-.815 1.522-1.522 2.439-2.096a10.81 10.81 0 0 1 10.457-.512c3.334 1.641 5.542 4.877 5.813 8.52.006.255.015.507.015.76z" fill="#efb7b9"/><path d="M136.018 68.615l-.036.32-4.935-7.55c-.516 1.194-.804 1.992-.804 1.992s-11.72-8.634-9.866-9.214c.623-.195 1.442-1.501 2.252-3.148l.101-.209c.86 2.509 5.86 7.523 7.94 9.532.241.232.44.424.594.563l.318.29.166.163c.756.763 3.95 4.131 4.27 7.26z" fill="#000" opacity=".1"/><path d="M139.698 94.311l-.54 17.004-.095 3.029s-6.397-.581-12.368-1.22c-4.807-.514-9.338-1.068-10.035-1.393-.89-.41-2.799-.726-4.303-.926-1.163-.154-2.077-.236-2.077-.236s-.341.1-.867.192c-1.145.203-3.157.369-4.329-.627-1.499-1.275 2.44-5.905 3.421-7.017l.217-.241-.371-3.353-.964-8.696s-.594-5.008-1.484-7.693a13.926 13.926 0 0 1-.513-2.337 18.329 18.329 0 0 1 .498-7.334c.282-1.015.461-2.054.534-3.103.149-2.686 8.531-13.065 10.609-14.008a4.358 4.358 0 0 0 2.124-2.073 3.88 3.88 0 0 0 .324-.903c.89-3.774 3.142-2.276 3.142-2.276.543 2.952 8.95 10.768 8.95 10.768l.166.162c.834.836 4.549 4.762 4.285 8.112a9.638 9.638 0 0 0 .56 3.67 60.849 60.849 0 0 1 2.923 16.258z" fill="#dce6f2"/><path d="M127.635 74.134s-2.077 4.935-3.635 5.734c-1.558.798 4.377 1.684 3.635-5.734zm1.558 9.218s-4.748.58-4.748 1.451 4.748-1.451 4.748-1.451zm4.97 5.66s-6.899 14.372-8.828 14.807c-1.928.436 8.828-14.806 8.828-14.806zm-2.875-26.401l-5.706 2.427-6.888-10.179a3.88 3.88 0 0 0 .324-.903c.89-3.774 3.142-2.276 3.142-2.276.543 2.953 8.95 10.768 8.95 10.768z" fill="#000" opacity=".1"/><path d="M131.585 62.03l-5.707 2.427-6.887-10.178c.145-.287.253-.59.324-.903.89-3.774 3.142-2.276 3.142-2.276.543 2.952 8.95 10.768 8.95 10.768z" fill="#dce6f2"/><path d="M138.947 114.454s-6.397-.58-12.367-1.22l10.712 2.744v3.194c-.47.415-.876.63-1.14.52-1.234-.509-11.308-2.106-11.308-2.106s-5.852-2.903-12.167-6.387a4.893 4.893 0 0 1-.445-.273 6.94 6.94 0 0 1-1.87-1.831c-1.165-1.652-1.735-3.775-1.981-5.856a24.78 24.78 0 0 1-.155-3.594 28.97 28.97 0 0 1 .38-4.062c-.61-5.204-.908-10.44-.89-15.678.074-8.129 7.864-11.032 7.864-11.032 14.317-1.234 9.878 21.412 9.878 21.412s-.828 6.387-1.054 7.04c-.225.653-1.035 1.742-.925 3.266s2.845 3.347 2.845 3.347 2.671 1.226 3.772 3.04c.801 1.338 6.006 3.153 8.946 4.448zm4.796-76.936a3.23 3.23 0 0 1-.297 1.388 8.507 8.507 0 0 1-.528 1.034 4.782 4.782 0 0 1-1.3 1.579c-.685.48-1.552.613-2.374.807-.822.195-1.676.505-2.145 1.19-.254.44-.424.923-.502 1.423s-.282.972-.593 1.376a1.18 1.18 0 0 1-1.389.325 1.378 1.378 0 0 1-.537-.676c-.338-.746-.424-1.574-.56-2.378-.137-.804-.33-1.631-.835-2.279-.504-.647-1.397-1.074-2.19-.822a2.09 2.09 0 0 0-1.186 1.127 6.348 6.348 0 0 0-.449 1.603 89.852 89.852 0 0 1-1.302 5.876.534.534 0 0 1-.098.22.432.432 0 0 1-.297.122c-.665.087-1.303-.368-1.973-.32-.07.005-.138.016-.205.033a10.195 10.195 0 0 1 1.071-11.845l.054-.015a3.21 3.21 0 0 0 1.187-.731c.428-.42.825-.87 1.187-1.345l.237-.29a13.414 13.414 0 0 1 2.315-2.151 2.39 2.39 0 0 1 .789-.418 2.39 2.39 0 0 1 .748-.024c1.024.12 2.058.159 3.089.114.718-.11 1.442-.183 2.169-.215 1.878.052 3.48 1.35 4.667 2.772.638.73 1.208 1.568 1.247 2.52z" fill="#000" opacity=".1"/><path d="M123.536 39.144c-.412.662-1.157 1.112-1.436 1.838-.41 1.054.282 2.366-.353 3.307-.21.316-.558.551-.676.914-.202.613.35 1.266.207 1.896-.142.63-.99 1.161-.765 1.777.133.268.367.476.653.58.45.253.967.365 1.483.323.81-.13 1.413-.909 2.235-.967.667-.047 1.305.406 1.97.322a.45.45 0 0 0 .297-.125.497.497 0 0 0 .098-.22 93.312 93.312 0 0 0 1.305-5.876c.076-.551.226-1.09.445-1.603a2.107 2.107 0 0 1 1.187-1.126c.793-.25 1.683.174 2.19.821.508.648.7 1.475.837 2.28.137.803.223 1.63.558 2.377.102.277.29.515.54.68.445.252 1.044.052 1.386-.326.312-.404.516-.878.593-1.379.078-.5.248-.98.502-1.42.469-.685 1.326-.995 2.145-1.19.82-.194 1.683-.33 2.374-.81a4.8 4.8 0 0 0 1.3-1.576c.439-.75.848-1.562.813-2.425-.039-.94-.609-1.78-1.217-2.51-1.187-1.423-2.792-2.721-4.67-2.77a19 19 0 0 0-2.17.214 18.974 18.974 0 0 1-3.089-.116 2.48 2.48 0 0 0-.747.026 2.253 2.253 0 0 0-.787.418 13.421 13.421 0 0 0-2.317 2.149c-.44.571-.919 1.114-1.43 1.626a3.23 3.23 0 0 1-1.188.734c-.296.081-.593.023-.875.113-.875.27-.991 1.388-1.398 2.044z" fill="#965d7b"/><path d="M152.126 46.98c-2.373.427-4.34-1.452-5.43-2.822a11.377 11.377 0 0 1-.91-1.312l8.148 1.504.329.06s1.498 1.92-2.137 2.57zm-30.833-.77a2.371 2.371 0 0 0-.173-1.114c0 .029-.026.058-.035.087-.128.389.044.792.154 1.196a.857.857 0 0 0 .054-.168zm.706-4.752a6.3 6.3 0 0 0 .024 1.205 6.33 6.33 0 0 0-.024-1.205zm20.608-2.714a4.782 4.782 0 0 1-1.3 1.579c-.685.479-1.549.612-2.373.807-.825.195-1.677.505-2.146 1.19-.254.441-.423.923-.501 1.423s-.282.975-.594 1.379c-.341.377-.94.58-1.386.325a1.393 1.393 0 0 1-.54-.68c-.335-.745-.424-1.57-.558-2.377-.133-.807-.332-1.632-.836-2.279-.505-.647-1.398-1.074-2.19-.822a2.1 2.1 0 0 0-1.187 1.127 6.222 6.222 0 0 0-.445 1.602 90.61 90.61 0 0 1-1.306 5.877.497.497 0 0 1-.098.22.45.45 0 0 1-.297.125c-.664.084-1.302-.369-1.97-.322-.822.058-1.424.836-2.234.964a2.553 2.553 0 0 1-1.484-.323 1.588 1.588 0 0 1-.543-.377.77.77 0 0 0-.11.676c.13.27.366.48.653.581.449.255.967.368 1.484.322.81-.127 1.412-.906 2.234-.964.668-.046 1.306.407 1.97.323a.45.45 0 0 0 .297-.125.497.497 0 0 0 .098-.22c.5-1.945.936-3.905 1.306-5.877.076-.55.225-1.09.445-1.603a2.098 2.098 0 0 1 1.187-1.126c.792-.253 1.682.174 2.19.822.507.647.7 1.474.836 2.279.137.804.223 1.631.558 2.377.102.277.291.515.54.68.446.252 1.045.052 1.386-.325.312-.405.516-.879.594-1.38.078-.5.247-.981.501-1.422.469-.685 1.327-.993 2.146-1.19.819-.198 1.682-.328 2.373-.807a4.782 4.782 0 0 0 1.3-1.58c.44-.746.849-1.559.813-2.421a3.053 3.053 0 0 0-.035-.331 5.636 5.636 0 0 1-.778 1.873z" fill="#000" opacity=".1"/><path d="M143.43 38.706a10.095 10.095 0 0 1 1.32 4.31c-2.643-1.45-5.13-3.045-6.385-3.6-2.187-.966-10.365-.82-13.44-.73.322-.563.698-1.094 1.122-1.586a10.669 10.669 0 0 1 2.449-2.096c2.462-1.53 5.46-2 8.287-1.3 2.828.699 5.237 2.506 6.662 4.996zm9.436 6.918c-1.427.43-3.756-.4-6.172-1.591a11.377 11.377 0 0 1-.91-1.312l8.148 1.504c.54.36.676.873-1.066 1.399z" fill="#000" opacity=".1"/><path d="M134.783 28.755s-7.789-.435-9.979 3.702l-.353 3.666-.593-.063-.12 2.493s11.906-.508 14.615.688c2.71 1.197 11.128 7.224 14.502 6.208 3.373-1.017-.297-1.96-.297-1.96s-4.644-1.925-4.644-3.435-1.151-9.484-13.13-11.299z" fill="#444053"/><path d="M119.733 164.613s4.97 4.718 7.122 4.355c0 0-6.083-.508-7.122-4.355zm-1.039 2.186s.445 2.427 1.632 2.19c1.187-.239-1.632-2.19-1.632-2.19zm7.79 40.564s-7.057 5.37-5.867 5.516c1.19.145 5.867-5.516 5.867-5.516z" fill="#000" opacity=".1"/><path d="M135.905 100.896l22.849-3.638v21.165l-21.71-1.112z" fill="#727272"/><path d="M135.905 100.896l22.849-3.638v21.165l-21.71-1.112z" fill="#000" opacity=".05"/><path d="M158.754 97.258l27.4 2.006-1.516 18.418-25.884.74z" fill="#727272"/><path d="M158.754 97.258l27.4 2.006-1.516 18.418-25.884.74z" fill="#000" opacity=".1"/><path d="M167.142 90.871l-8.424 6.46 27.4 2.006 4.478-6.61zm-39.546 3.043l20.57-2.45 10.552 5.867-22.849 3.637zm36.131 8.912v28.937l-10.703-1.074-4.656-.465-1.418-.145-4.653-.467-6.428-.645v-27.999l22.846 1.522z" fill="#727272"/><path d="M186.19 99.29v28.22l-8.579 1.611-4.172.784-9.64 1.811V102.78z" fill="#727272"/><path d="M186.19 99.29v28.22l-8.579 1.611-4.172.784-9.64 1.811V102.78z" fill="#000" opacity=".05"/><path d="M127.596 106.833l8.273-6.091 27.858 1.858-4.1 6.759z" fill="#727272"/><path d="M127.596 106.833l8.273-6.091 27.858 1.858-4.1 6.759z" fill="#fff" opacity=".1"/><path d="M186.19 99.29l-22.392 3.49 7.288 6.387 23.985-3.937z" fill="#727272"/><path d="M186.255 99.29l-22.391 3.49 7.287 6.387 23.985-3.937-8.88-5.94zm-8.578 29.831l-4.173.784v-6.03l3.908-.964zm-24.517-2.468v3.99l-4.656-.465v-3.525zm-6.074 1.257v2.123l-4.653-.468v-1.655z" fill="#fff" opacity=".1"/><path d="M161.19 124.548c-3.19 3.992-13.724 1.234-13.724 1.234l-7.828-7.99-1.062-1.082 2.077-3.775s.593.192 1.584.529c5.247 1.794 21.638 7.725 18.953 11.084z" fill="#000" opacity=".1"/><path d="M160.893 123.968c-3.19 3.992-13.724 1.234-13.724 1.234l-7.828-7.99-1.062-1.083 2.077-3.774s.594.191 1.585.528c5.246 1.794 21.638 7.726 18.952 11.085z" fill="#efb7b9"/><path d="M141.644 112.883c-.433 1.22-1.534 3.025-2.6 4.329l-1.062-1.083 2.077-3.774s.597.191 1.585.528z" fill="#000" opacity=".1"/><path d="M115.876 67.695s-7.79 2.903-7.863 11.032c-.018 5.238.28 10.473.89 15.677 0 0-2.226 12.121 4.08 15.605a346.45 346.45 0 0 0 12.166 6.387s10.074 1.597 11.312 2.105c1.237.508 5.537-6.024 4.87-7.113-.668-1.088-9.84-3.774-10.93-5.588-1.089-1.815-3.771-3.037-3.771-3.037s-2.736-1.826-2.846-3.35c-.11-1.525.698-2.613.926-3.267.229-.653 1.056-7.04 1.056-7.04s4.428-22.66-9.89-21.411z" fill="#dce6f2"/><path d="M119.555 94.645s-10.534 1.161-9.718 4.79c0 0 4.003-3.66 9.718-4.79zm0 1.452s-5.979 4.282-4.88 4.572c1.097.29 4.88-4.572 4.88-4.572zm2.671 1.742s-1.706 3.002-.742 2.845c.965-.157.742-2.845.742-2.845z" fill="#000" opacity=".1"/></g></svg>